<?xml version="1.0" standalone="no"?>
<!DOCTYPE svg PUBLIC "-//W3C//DTD SVG 20010904//EN"
 "http://www.w3.org/TR/2001/REC-SVG-20010904/DTD/svg10.dtd">
<svg version="1.0" xmlns="http://www.w3.org/2000/svg"
 width="2000.000000pt" height="2000.000000pt" viewBox="0 0 2000.000000 2000.000000"
 preserveAspectRatio="xMidYMid meet">

<g transform="translate(0.000000,2000.000000) scale(0.100000,-0.100000)"
fill="#000000" stroke="none">
<path d="M2960 11821 c-87 -27 -174 -104 -213 -189 l-22 -47 0 -3750 0 -3750
27 -50 c14 -28 47 -70 72 -93 l46 -42 0 -116 c0 -141 12 -191 57 -243 47 -55
71 -61 572 -146 46 -8 91 -17 100 -19 9 -3 84 -17 166 -31 83 -14 236 -42 340
-61 105 -19 227 -42 273 -50 105 -18 224 -39 332 -59 47 -9 121 -22 165 -30
44 -8 118 -21 165 -30 47 -9 137 -25 200 -36 127 -22 125 -22 400 -72 286 -52
463 -85 565 -103 50 -9 146 -27 215 -40 69 -13 193 -35 275 -49 83 -14 173
-30 200 -35 28 -5 86 -16 130 -24 44 -8 132 -25 195 -37 102 -19 136 -21 305
-16 105 4 226 11 270 16 44 6 139 15 210 20 200 16 355 30 530 46 88 8 223 19
300 25 231 18 509 42 1005 85 91 8 224 19 295 25 72 5 153 12 180 15 28 3 131
12 230 20 99 9 257 22 350 30 94 8 174 15 178 15 5 0 5 36 1 80 l-7 80 77 2
c42 1 84 2 93 2 14 1 16 -9 14 -71 l-2 -73 43 0 c24 0 111 6 193 14 83 8 236
22 340 31 105 8 244 20 310 26 306 26 471 40 605 50 80 6 149 15 154 19 4 5
-5 51 -22 104 l-30 96 77 0 c42 0 90 4 108 9 37 11 43 0 43 -94 0 -101 4 -107
64 -101 82 9 263 24 521 46 305 26 545 46 760 65 94 8 251 22 350 30 99 8 261
22 360 30 99 8 209 18 245 20 36 3 112 10 170 15 58 6 188 17 290 25 221 18
462 39 775 66 127 10 309 26 405 34 96 9 249 22 340 30 91 8 253 21 360 30
231 19 256 24 297 67 47 48 63 104 63 219 0 84 -2 98 -18 103 -9 3 -168 26
-352 51 -184 24 -380 51 -435 60 -55 8 -152 21 -215 30 -63 9 -160 22 -215 30
-55 8 -154 21 -220 30 -66 9 -165 22 -220 30 -55 9 -170 24 -255 35 -85 11
-182 25 -215 30 -33 5 -130 19 -215 30 -85 11 -171 22 -190 25 -19 3 -114 16
-210 30 -96 13 -204 29 -240 34 -36 6 -135 19 -220 31 -85 11 -200 27 -255 35
-55 8 -314 44 -575 80 -261 36 -556 77 -655 91 -125 18 -212 24 -285 22 l-105
-3 -7 50 c-4 28 -7 356 -7 731 l0 680 -128 61 c-265 127 -581 229 -913 297
-124 25 -160 28 -158 14 2 -7 10 -16 18 -20 11 -6 10 -7 -5 -5 -11 1 -21 8
-21 15 -3 25 -6 26 -14 7 -8 -19 -9 -19 -9 2 -1 15 -9 24 -23 28 -260 57 -398
107 -550 198 -118 71 -202 133 -304 224 -39 34 -74 63 -78 63 -3 0 -6 -31 -6
-70 0 -40 -4 -70 -10 -70 -6 0 -9 5 -8 11 2 7 -33 10 -112 9 -168 -3 -390 -16
-310 -19 50 -1 61 -4 47 -12 -12 -7 -41 -7 -93 0 -41 6 -112 10 -157 9 -82 -1
-82 -1 -22 -7 l60 -6 -53 -6 c-73 -8 -86 -25 -26 -33 16 -2 21 -1 12 1 -36 9
-17 22 30 21 26 -1 72 0 102 3 30 3 45 4 33 2 -19 -4 -23 -11 -23 -43 0 -47 9
-51 106 -44 54 3 74 1 69 -7 -4 -6 -28 -9 -59 -8 -28 2 -56 0 -62 -4 -7 -4
-25 0 -40 8 -16 8 -38 15 -49 15 -14 -1 -9 -6 15 -16 26 -12 78 -17 205 -19
94 -2 193 -6 220 -9 37 -4 42 -3 20 3 -29 8 -29 9 12 10 23 0 44 -4 46 -9 3
-6 4 -5 3 2 -1 7 3 19 11 26 11 11 19 73 14 105 0 4 3 7 9 7 5 0 10 -22 10
-50 0 -33 -4 -50 -12 -50 -10 0 -10 -2 -1 -8 7 -5 14 -65 19 -175 l7 -167 -24
-1 c-17 0 -20 -2 -9 -7 17 -8 25 -32 11 -32 -5 0 -12 6 -14 13 -4 9 -6 8 -6
-2 -1 -7 7 -21 18 -30 20 -17 26 -84 36 -416 6 -195 23 -577 34 -780 5 -82 6
-153 2 -157 -7 -7 -137 -19 -476 -43 -194 -13 -973 -68 -2345 -165 -234 -17
-585 -41 -780 -55 -195 -14 -413 -29 -485 -35 -71 -6 -449 -33 -840 -60 -390
-27 -834 -59 -985 -70 -1383 -100 -1429 -103 -1477 -85 -63 24 -106 66 -134
127 l-24 53 0 3265 0 3265 24 52 c26 58 84 117 137 139 27 12 150 14 694 14
l660 0 0 235 0 235 -907 -1 c-500 0 -919 -4 -933 -8z m7680 -4992 c0 -4 10 -9
23 -12 12 -2 -7 -2 -43 -1 -49 2 -57 1 -30 -5 28 -6 20 -7 -37 -7 -40 0 -73 4
-73 8 0 4 -19 9 -42 10 l-43 1 45 7 c62 9 200 9 200 -1z m73 4 c-7 -2 -19 -2
-25 0 -7 3 -2 5 12 5 14 0 19 -2 13 -5z m24 -45 c-3 -7 -5 -2 -5 12 0 14 2 19
5 13 2 -7 2 -19 0 -25z m-304 15 c-7 -2 -19 -2 -25 0 -7 3 -2 5 12 5 14 0 19
-2 13 -5z m291 -95 c-6 -10 -164 -7 -164 4 0 4 38 7 84 6 46 -2 82 -6 80 -10z
m1098 -286 c3 -9 1 -26 -3 -37 -7 -18 -8 -17 -7 5 0 14 -3 34 -7 44 -6 13 -5
17 2 13 6 -4 13 -15 15 -25z m-92 -2 c0 -5 -5 -10 -11 -10 -5 0 -7 5 -4 10 3
6 8 10 11 10 2 0 4 -4 4 -10z m70 -10 c0 -5 -2 -10 -4 -10 -3 0 -8 5 -11 10
-3 6 -1 10 4 10 6 0 11 -4 11 -10z m-61 -85 c0 -5 -4 -3 -9 5 -5 8 -9 22 -9
30 0 16 17 -16 18 -35z m21 29 c0 -8 -4 -12 -10 -9 -5 3 -10 10 -10 16 0 5 5
9 10 9 6 0 10 -7 10 -16z m-50 -29 c0 -5 -5 -3 -10 5 -5 8 -10 20 -10 25 0 6
5 3 10 -5 5 -8 10 -19 10 -25z m143 1 c4 -10 1 -13 -8 -9 -8 3 -12 9 -9 14 7
12 11 11 17 -5z m8 -77 c-5 -13 -10 -19 -10 -12 -1 15 10 45 15 40 3 -2 0 -15
-5 -28z m47 -113 c7 -16 11 -31 9 -33 -7 -7 -37 64 -37 87 0 14 -4 19 -12 14
-8 -5 -9 -2 -5 10 4 10 8 23 8 29 1 7 7 -8 13 -33 7 -25 18 -58 24 -74z m-252
42 c-19 -27 -21 -19 -4 18 7 14 14 21 16 15 2 -6 -4 -21 -12 -33z m223 -53 c0
-16 -3 -13 -15 10 l-14 30 4 -44 c3 -30 2 -40 -5 -30 -10 16 -12 50 -3 73 6
15 8 15 20 -1 7 -10 13 -27 13 -38z m-236 0 c-3 -9 -8 -14 -10 -11 -3 3 -2 9
2 15 9 16 15 13 8 -4z m24 -17 c-3 -7 -5 -2 -5 12 0 14 2 19 5 13 2 -7 2 -19
0 -25z m-40 -30 c-3 -8 -6 -5 -6 6 -1 11 2 17 5 13 3 -3 4 -12 1 -19z m40 -40
c-3 -7 -5 -2 -5 12 0 14 2 19 5 13 2 -7 2 -19 0 -25z m-54 -50 c-3 -35 -10
-66 -16 -69 -5 -4 -7 -14 -4 -23 3 -8 1 -18 -5 -22 -8 -5 -9 10 -5 52 6 53 24
124 32 124 2 0 1 -28 -2 -62z m383 -125 c-5 -5 -23 40 -40 96 -26 88 -16 82
14 -9 16 -46 27 -86 26 -87z m-356 147 c0 -5 -4 -10 -10 -10 -5 0 -10 5 -10
10 0 6 5 10 10 10 6 0 10 -4 10 -10z m-13 -82 c-3 -7 -5 -2 -5 12 0 14 2 19 5
13 2 -7 2 -19 0 -25z m52 -20 c1 -5 -3 -8 -8 -8 -12 0 -22 30 -14 43 6 10 20
-13 22 -35z m248 -30 c-3 -7 -5 -2 -5 12 0 14 2 19 5 13 2 -7 2 -19 0 -25z
m30 0 c-3 -7 -5 -2 -5 12 0 14 2 19 5 13 2 -7 2 -19 0 -25z m50 -80 c-3 -8 -6
-5 -6 6 -1 11 2 17 5 13 3 -3 4 -12 1 -19z m14 -25 c-12 -20 -14 -14 -5 12 4
9 9 14 11 11 3 -2 0 -13 -6 -23z m-422 -28 l0 -20 -9 20 c-5 11 -9 27 -9 35
-1 13 0 13 9 0 5 -8 9 -24 9 -35z m-13 -26 c14 -53 10 -149 -6 -149 -10 0 -20
37 -20 72 0 15 -4 29 -9 33 -9 5 -6 60 5 94 7 21 14 9 30 -50z m449 11 c-4
-12 -9 -19 -12 -17 -3 3 -2 15 2 27 4 12 9 19 12 17 3 -3 2 -15 -2 -27z m35
-82 c0 -5 -4 -8 -10 -8 -5 0 -10 10 -10 23 0 18 2 19 10 7 5 -8 10 -18 10 -22z
m-520 -45 c0 -16 7 -37 15 -47 19 -25 19 -36 1 -36 -7 0 -16 13 -19 29 -3 16
-9 40 -13 55 -4 16 -2 26 5 26 6 0 11 -12 11 -27z m548 -18 c-3 -3 -9 2 -12
12 -6 14 -5 15 5 6 7 -7 10 -15 7 -18z m-571 -57 c-3 -7 -5 -2 -5 12 0 14 2
19 5 13 2 -7 2 -19 0 -25z m70 0 c-3 -8 -6 -5 -6 6 -1 11 2 17 5 13 3 -3 4
-12 1 -19z m500 -40 c-3 -8 -6 -5 -6 6 -1 11 2 17 5 13 3 -3 4 -12 1 -19z m47
-47 c-6 -7 -11 2 -17 34 l-6 30 13 -30 c8 -16 12 -32 10 -34z m-626 -87 c-1
-64 -5 -105 -9 -91 -7 24 0 207 8 207 2 0 2 -52 1 -116z m672 -9 c0 -5 -5 -3
-10 5 -5 8 -10 20 -10 25 0 6 5 3 10 -5 5 -8 10 -19 10 -25z m19 -60 c0 -5 -4
-3 -9 5 -5 8 -9 22 -9 30 0 16 17 -16 18 -35z m-32 -10 c-15 -16 -22 -11 -13
10 3 9 10 13 16 10 6 -4 5 -11 -3 -20z m53 -45 c0 -13 -1 -13 -10 0 -5 8 -10
22 -10 30 0 13 1 13 10 0 5 -8 10 -22 10 -30z m-30 20 c0 -5 -5 -10 -11 -10
-5 0 -7 5 -4 10 3 6 8 10 11 10 2 0 4 -4 4 -10z m-33 -42 c-3 -7 -5 -2 -5 12
0 14 2 19 5 13 2 -7 2 -19 0 -25z m30 0 c-3 -8 -6 -5 -6 6 -1 11 2 17 5 13 3
-3 4 -12 1 -19z m-627 -62 c30 -26 71 -62 90 -79 35 -31 35 -31 135 -29 55 2
102 7 105 11 3 5 82 11 175 14 215 6 186 -6 -50 -22 -99 -7 -205 -15 -235 -18
-197 -19 -282 -25 -287 -19 -10 10 -16 162 -8 193 5 21 9 24 14 12 3 -9 31
-37 61 -63z m30 12 c0 -19 -2 -20 -10 -8 -13 19 -13 30 0 30 6 0 10 -10 10
-22z m650 -43 c-7 -8 -22 -14 -34 -14 -20 1 -20 2 -1 6 11 3 24 9 30 14 15 14
19 10 5 -6z m-593 -1 c-3 -3 -12 -4 -19 -1 -8 3 -5 6 6 6 11 1 17 -2 13 -5z
m406 -1 c-13 -2 -33 -2 -45 0 -13 2 -3 4 22 4 25 0 35 -2 23 -4z m124 -29 c-3
-3 -12 -4 -19 -1 -8 3 -5 6 6 6 11 1 17 -2 13 -5z m76 -9 c4 -8 2 -17 -2 -20
-5 -2 -11 4 -14 15 -6 23 8 27 16 5z"/>
<path d="M10498 6823 c12 -2 32 -2 45 0 12 2 2 4 -23 4 -25 0 -35 -2 -22 -4z"/>
<path d="M11565 5716 c3 -27 5 -65 6 -85 l1 -36 8 35 c6 23 4 51 -6 85 l-14
50 5 -49z"/>
<path d="M12175 11163 c-82 -23 -114 -104 -91 -234 l8 -46 -51 -37 c-28 -21
-51 -41 -51 -45 0 -4 14 -14 32 -22 17 -8 33 -19 35 -25 2 -6 -12 -31 -31 -55
-19 -24 -46 -57 -59 -74 -72 -92 -98 -287 -63 -485 28 -158 180 -599 262 -763
107 -212 252 -351 425 -408 101 -33 237 -32 459 5 500 82 653 97 1038 98 367
2 521 -17 1062 -131 333 -71 500 -30 701 169 107 106 157 175 225 311 184 367
215 845 77 1164 -81 186 -235 336 -424 412 -274 111 -629 119 -1006 24 -304
-77 -533 -195 -765 -393 -219 -185 -339 -234 -553 -225 -298 12 -535 131 -702
352 -140 186 -297 356 -357 387 -39 20 -133 32 -171 21z"/>
<path d="M4618 10843 c34 -2 90 -2 125 0 34 2 6 3 -63 3 -69 0 -97 -1 -62 -3z"/>
<path d="M9828 6809 c15 -6 15 -7 -3 -11 -11 -3 -2 -2 20 1 22 3 76 6 120 5
58 0 72 2 50 8 -34 9 -213 6 -187 -3z"/>
<path d="M9578 6803 c7 -3 16 -2 19 1 4 3 -2 6 -13 5 -11 0 -14 -3 -6 -6z"/>
<path d="M9663 6803 c26 -2 67 -2 90 0 23 2 2 3 -48 3 -49 0 -68 -1 -42 -3z"/>
<path d="M9363 6793 c-46 -2 -83 -7 -83 -11 0 -10 172 -2 190 9 12 7 11 8 -5
7 -11 -1 -57 -4 -102 -5z"/>
<path d="M9868 6783 c12 -2 32 -2 45 0 12 2 2 4 -23 4 -25 0 -35 -2 -22 -4z"/>
<path d="M9173 6773 c15 -2 39 -2 55 0 15 2 2 4 -28 4 -30 0 -43 -2 -27 -4z"/>
<path d="M9980 6770 c34 -11 60 -11 35 0 -11 5 -29 8 -40 8 -16 0 -15 -2 5 -8z"/>
<path d="M10138 6763 c7 -3 16 -2 19 1 4 3 -2 6 -13 5 -11 0 -14 -3 -6 -6z"/>
<path d="M10065 6750 c27 -12 43 -12 25 0 -8 5 -22 9 -30 9 -10 0 -8 -3 5 -9z"/>
<path d="M10745 6680 c3 -5 8 -10 11 -10 2 0 4 5 4 10 0 6 -5 10 -11 10 -5 0
-7 -4 -4 -10z"/>
<path d="M10310 6670 c-8 -5 -7 -9 5 -14 23 -8 75 -8 75 2 0 4 48 6 106 5 58
-1 104 1 101 3 -8 9 -274 12 -287 4z m43 -7 c-7 -2 -19 -2 -25 0 -7 3 -2 5 12
5 14 0 19 -2 13 -5z"/>
<path d="M12958 3045 c-34 -19 -49 -48 -78 -144 -26 -90 -29 -211 -5 -248 24
-37 70 -60 134 -67 73 -8 188 8 212 30 25 23 25 79 -1 146 -12 29 -28 87 -36
128 -15 78 -32 110 -76 143 -35 26 -114 32 -150 12z"/>
<path d="M11226 2839 c-52 -31 -151 -184 -189 -291 -12 -35 -32 -80 -44 -101
-34 -56 -38 -84 -16 -95 10 -5 66 -13 124 -16 137 -9 164 1 207 76 17 30 41
63 53 74 29 26 52 73 51 104 -1 27 -92 212 -119 242 -18 20 -39 22 -67 7z"/>
</g>
</svg>
