<svg xmlns="http://www.w3.org/2000/svg" xmlns:xlink="http://www.w3.org/1999/xlink" viewBox="0 0 398.58 479.33"><defs><style>.cls-1{fill:none;}.cls-2{isolation:isolate;}.cls-3{clip-path:url(#clip-path);}.cls-4{clip-path:url(#clip-path-2);}.cls-5{clip-path:url(#clip-path-3);}.cls-6{fill:#858585;}.cls-7{clip-path:url(#clip-path-4);}.cls-8{clip-path:url(#clip-path-5);}.cls-9{clip-path:url(#clip-path-6);}.cls-10{fill:#999;}.cls-11{fill:#9e9e9e;}.cls-12{fill:#a3a3a3;}.cls-13{fill:#a8a8a8;}.cls-14{fill:#adadad;}.cls-15{fill:#b3b3b3;}.cls-16{clip-path:url(#clip-path-7);}.cls-17{clip-path:url(#clip-path-8);}.cls-18{fill:gray;}.cls-19{fill:#b2b2b2;}.cls-20{clip-path:url(#clip-path-9);}.cls-21{fill:#949494;}.cls-22{fill:#8f8f8f;}.cls-23{fill:#8a8a8a;}.cls-24{fill:#d3d3d3;}.cls-25{clip-path:url(#clip-path-10);}</style><clipPath id="clip-path"><path class="cls-1" d="M46.27,4,56.64,7.48C36.75,7.48,20.32,24,20,44.28L9.65,40.8C10,20.51,26.38,4,46.27,4Z"/></clipPath><clipPath id="clip-path-2"><path class="cls-1" d="M38.64,473.52,28.27,470a36.15,36.15,0,0,1-24.35-35l10.37,3.49A36.17,36.17,0,0,0,38.64,473.52Z"/></clipPath><clipPath id="clip-path-3"><path class="cls-1" d="M38.64,473.52,28.27,470a35.15,35.15,0,0,0,11.2,1.82l10.37,3.49A35.15,35.15,0,0,1,38.64,473.52Z"/></clipPath><clipPath id="clip-path-4"><path class="cls-1" d="M37.33,477.3,27,473.81a38.87,38.87,0,0,0,12.45,2l10.37,3.49A39.14,39.14,0,0,1,37.33,477.3Z"/></clipPath><clipPath id="clip-path-5"><path class="cls-1" d="M360,5.82l10.37,3.49a34.88,34.88,0,0,0-11.2-1.83L348.75,4A35.2,35.2,0,0,1,360,5.82Z"/></clipPath><clipPath id="clip-path-6"><path class="cls-1" d="M370.27,9.29a35.56,35.56,0,0,1,18.5,14.4l-1.21-.41-1.29-.43-1.33-.45-1.36-.46-1.35-.45L380.9,21l-1.29-.43-1.21-.41A35.65,35.65,0,0,0,359.9,5.8Z"/></clipPath><clipPath id="clip-path-7"><path class="cls-1" d="M388.77,23.69a36.62,36.62,0,0,1,5.9,20.59L384.3,40.8a36.63,36.63,0,0,0-5.9-20.6Z"/></clipPath><clipPath id="clip-path-8"><path class="cls-1" d="M361.25,2l10.37,3.49a40,40,0,0,1,27,38.77L388.21,40.8A40,40,0,0,0,361.25,2Z"/></clipPath><clipPath id="clip-path-9"><path class="cls-1" d="M378.57,435.05l10.37,3.49c-.3,20.29-16.73,36.8-36.62,36.8L342,471.85C361.84,471.85,378.27,455.34,378.57,435.05Z"/></clipPath><clipPath id="clip-path-10"><path class="cls-1" d="M382.47,435.05l10.37,3.49c-.32,22.52-18.49,40.79-40.58,40.79l-10.37-3.49C364,475.84,382.15,457.58,382.47,435.05Z"/></clipPath></defs><g id="Layer_2" data-name="Layer 2"><g id="Layer_1-2" data-name="Layer 1"><g class="cls-2"><g class="cls-2"><g class="cls-3"><g class="cls-2"><path d="M46.27,4,56.64,7.48A36.19,36.19,0,0,0,31,18.24L20.64,14.76A36.16,36.16,0,0,1,46.27,4"/><path d="M20.64,14.76,31,18.24a38.56,38.56,0,0,0-3.45,4L17.19,18.75a36.58,36.58,0,0,1,3.45-4"/><path d="M17.19,18.75l10.37,3.48a36.32,36.32,0,0,0-2.4,3.6L14.79,22.34a37.39,37.39,0,0,1,2.4-3.59"/><path d="M14.79,22.34l10.37,3.49c-.65,1.13-1.25,2.29-1.79,3.48L13,25.82q.82-1.79,1.8-3.48"/><path d="M13,25.82l10.38,3.49A35,35,0,0,0,22,32.79L11.62,29.3c.4-1.18.86-2.35,1.37-3.48"/><path d="M11.62,29.3,22,32.79c-.39,1.18-.74,2.38-1,3.61L10.6,32.91a36.37,36.37,0,0,1,1-3.61"/><path d="M10.6,32.91,21,36.4a37.87,37.87,0,0,0-.68,3.88L9.92,36.79a37.87,37.87,0,0,1,.68-3.88"/><path d="M9.92,36.79l10.37,3.49c-.15,1.31-.25,2.65-.27,4L9.65,40.8a37.67,37.67,0,0,1,.27-4"/></g></g></g><polygon points="9.65 40.8 20.02 44.28 14.29 438.54 3.92 435.05 9.65 40.8"/><g class="cls-2"><g class="cls-4"><g class="cls-2"><path d="M3.92,435.05l10.37,3.49v.4L3.92,435.46v-.41"/><path d="M3.92,435.46l10.37,3.48a37.74,37.74,0,0,0,.37,5.46L4.29,440.92a37.94,37.94,0,0,1-.37-5.46"/><path d="M4.29,440.92l10.37,3.48a36.42,36.42,0,0,0,9.19,19.47l-10.37-3.49a36.42,36.42,0,0,1-9.19-19.46"/><path d="M13.48,460.38l10.37,3.49a37.88,37.88,0,0,0,4,3.73l-10.37-3.49a36.92,36.92,0,0,1-4-3.73"/><path d="M17.46,464.11l10.37,3.49a36.56,36.56,0,0,0,3.55,2.5L21,466.61a36.56,36.56,0,0,1-3.55-2.5"/><path d="M21,466.61l10.37,3.49A35.66,35.66,0,0,0,34.76,472l-10.37-3.49A35.66,35.66,0,0,1,21,466.61"/><path d="M24.39,468.46,34.76,472a36,36,0,0,0,3.39,1.4l-10.37-3.49a36,36,0,0,1-3.39-1.4"/><path d="M27.78,469.86l10.37,3.49.49.17L28.27,470l-.49-.17"/></g></g></g><g class="cls-2"><g class="cls-5"><g class="cls-2"><path class="cls-6" d="M39.47,471.85l10.37,3.49a35.15,35.15,0,0,1-11.2-1.82L28.27,470a35.15,35.15,0,0,0,11.2,1.82"/></g></g></g><g class="cls-2"><g class="cls-7"><g class="cls-2"><path d="M39.41,475.84l10.37,3.49a39.14,39.14,0,0,1-12.45-2L27,473.81a38.87,38.87,0,0,0,12.45,2"/></g></g></g><polygon points="348.75 4 359.12 7.48 56.64 7.48 46.27 4 348.75 4"/><g class="cls-2"><g class="cls-8"><g class="cls-2"><path d="M360,5.82l10.37,3.49a34.88,34.88,0,0,0-11.2-1.83L348.75,4A35.2,35.2,0,0,1,360,5.82"/></g></g></g><g class="cls-2"><g class="cls-9"><g class="cls-2"><path class="cls-10" d="M360,5.82l10.37,3.49.49.17L360.44,6,360,5.82"/><path class="cls-11" d="M360.44,6l10.37,3.49a33.53,33.53,0,0,1,3.39,1.4L363.83,7.39A36,36,0,0,0,360.44,6"/><path class="cls-12" d="M363.83,7.39l10.37,3.49a35.58,35.58,0,0,1,3.38,1.84L367.21,9.23a35.58,35.58,0,0,0-3.38-1.84"/><path class="cls-13" d="M367.21,9.23l10.37,3.49a36.66,36.66,0,0,1,3.55,2.51l-10.37-3.49a36.66,36.66,0,0,0-3.55-2.51"/><path class="cls-14" d="M370.76,11.74l10.37,3.49a36.85,36.85,0,0,1,4,3.73l-10.37-3.49a37.88,37.88,0,0,0-4-3.73"/><path class="cls-15" d="M374.74,15.47,385.11,19a36.49,36.49,0,0,1,9.19,19.46l-10.38-3.49a36.41,36.41,0,0,0-9.18-19.46"/></g></g></g><g class="cls-2"><g class="cls-16"><g class="cls-2"><path class="cls-15" d="M374.74,15.47,385.11,19a36.49,36.49,0,0,1,9.19,19.46l-10.38-3.49a36.41,36.41,0,0,0-9.18-19.46"/><path class="cls-14" d="M383.92,34.93l10.38,3.49a37.74,37.74,0,0,1,.37,5.46L384.3,40.39a36.46,36.46,0,0,0-.38-5.46"/><path class="cls-13" d="M384.3,40.39l10.37,3.49v.4L384.3,40.8v-.41"/></g></g></g><g class="cls-2"><g class="cls-17"><g class="cls-2"><path d="M361.25,2l10.37,3.49.55.19L361.8,2.21,361.25,2"/><path d="M361.8,2.21,372.17,5.7a38.39,38.39,0,0,1,3.75,1.55L365.55,3.76c-1.22-.58-2.47-1.09-3.75-1.55"/><path d="M365.55,3.76l10.37,3.49a42.32,42.32,0,0,1,3.75,2L369.29,5.81a38.59,38.59,0,0,0-3.74-2"/><path d="M369.29,5.81l10.38,3.48a39.69,39.69,0,0,1,3.92,2.78L373.22,8.58a38.58,38.58,0,0,0-3.93-2.77"/><path d="M373.22,8.58l10.37,3.49a39.82,39.82,0,0,1,4.4,4.12L377.62,12.7a40.8,40.8,0,0,0-4.4-4.12"/><path d="M377.62,12.7,388,16.19a40.26,40.26,0,0,1,10.17,21.57l-10.37-3.49A40.33,40.33,0,0,0,377.62,12.7"/><path d="M387.79,34.27l10.37,3.49a40.54,40.54,0,0,1,.42,6.07l-10.37-3.49a40.54,40.54,0,0,0-.42-6.07"/><path d="M388.21,40.34l10.37,3.49v.45L388.21,40.8v-.46"/></g></g></g><polygon class="cls-18" points="341.95 471.85 352.32 475.34 49.84 475.34 39.47 471.85 341.95 471.85"/><polygon points="341.89 475.84 352.26 479.33 49.78 479.33 39.41 475.84 341.89 475.84"/><polygon class="cls-19" points="384.3 40.8 394.67 44.28 388.94 438.54 378.57 435.05 384.3 40.8"/><polygon points="388.21 40.8 398.58 44.28 392.84 438.54 382.47 435.05 388.21 40.8"/><g class="cls-2"><g class="cls-20"><g class="cls-2"><path class="cls-13" d="M378.57,435.05l10.37,3.49a38,38,0,0,1-.28,4l-10.37-3.49a37.84,37.84,0,0,0,.28-4"/><path class="cls-12" d="M378.29,439.06l10.37,3.49a35.72,35.72,0,0,1-.67,3.88l-10.37-3.49a35.31,35.31,0,0,0,.67-3.88"/><path class="cls-11" d="M377.62,442.94,388,446.43c-.28,1.22-.63,2.42-1,3.6l-10.37-3.49c.39-1.17.73-2.38,1-3.6"/><path class="cls-10" d="M376.6,446.54,387,450a35,35,0,0,1-1.38,3.48L375.22,450a35,35,0,0,0,1.38-3.48"/><path class="cls-21" d="M375.22,450l10.37,3.49a35.72,35.72,0,0,1-1.8,3.48l-10.37-3.49a35.72,35.72,0,0,0,1.8-3.48"/><path class="cls-22" d="M373.42,453.5,383.79,457a36.23,36.23,0,0,1-2.39,3.6L371,457.1a36.23,36.23,0,0,0,2.39-3.6"/><path class="cls-23" d="M371,457.1l10.37,3.49a38.56,38.56,0,0,1-3.45,4l-10.37-3.49a37.54,37.54,0,0,0,3.45-4"/><path class="cls-6" d="M367.58,461.09,378,464.58a36.19,36.19,0,0,1-25.63,10.76L342,471.85a36.15,36.15,0,0,0,25.63-10.76"/></g></g></g><path class="cls-24" d="M348.75,4c19.89,0,35.84,16.51,35.55,36.8l-5.73,394.25c-.3,20.29-16.73,36.8-36.62,36.8H39.47c-19.89,0-35.84-16.51-35.55-36.8L9.65,40.8C10,20.51,26.38,4,46.27,4Z"/><path d="M348.81,0c22.08,0,39.72,18.27,39.4,40.8l-5.74,394.25c-.32,22.53-18.49,40.79-40.58,40.79H39.41C17.33,475.84-.32,457.58,0,435.05L5.74,40.8C6.06,18.27,24.24,0,46.33,0Zm29.75,435.05L384.3,40.8C384.59,20.51,368.64,4,348.75,4H46.27C26.38,4,10,20.51,9.65,40.8L3.92,435.05c-.29,20.29,15.66,36.8,35.55,36.8H342c19.89,0,36.32-16.51,36.61-36.8"/><g class="cls-2"><g class="cls-25"><g class="cls-2"><path d="M382.47,435.05l10.37,3.49a40.89,40.89,0,0,1-.3,4.46l-10.37-3.49a40.89,40.89,0,0,0,.3-4.46"/><path d="M382.17,439.51,392.54,443a41.47,41.47,0,0,1-.75,4.32l-10.37-3.49a43.27,43.27,0,0,0,.75-4.32"/><path d="M381.42,443.83l10.37,3.49a41.35,41.35,0,0,1-1.13,4l-10.37-3.48a41.55,41.55,0,0,0,1.13-4"/><path d="M380.29,447.83l10.37,3.48c-.45,1.32-1,2.61-1.52,3.86l-10.37-3.48c.56-1.26,1.07-2.55,1.52-3.86"/><path d="M378.77,451.69l10.37,3.48a40,40,0,0,1-2,3.85l-10.37-3.48a42.53,42.53,0,0,0,2-3.85"/><path d="M376.77,455.54,387.14,459a41,41,0,0,1-2.64,4l-10.37-3.48a42.21,42.21,0,0,0,2.64-4"/><path d="M374.13,459.52,384.5,463a41.23,41.23,0,0,1-3.82,4.41l-10.37-3.49a41.12,41.12,0,0,0,3.82-4.4"/><path d="M370.31,463.92l10.37,3.49a40.08,40.08,0,0,1-28.42,11.92l-10.37-3.49a40,40,0,0,0,28.42-11.92"/></g></g></g></g></g></g></svg>