<svg xmlns="http://www.w3.org/2000/svg" viewBox="0 0 406 88.66"><defs><style>.cls-1{fill:#313131;stroke:#000;stroke-miterlimit:10;stroke-width:3.48px;}.cls-2{fill:#bfb3b1;}</style></defs><g id="Layer_2" data-name="Layer 2"><g id="Layer_1-2" data-name="Layer 1"><polyline class="cls-1" points="404.25 78.17 404.25 86.92 1.75 86.92 1.75 78.17"/><polygon class="cls-2" points="2 76.42 11.85 1.75 394.15 1.75 404 76.42 2 76.42"/><path d="M392.62,3.5,402,74.67H4L13.38,3.5H392.62M395.69,0H10.31L0,78.17H406L395.69,0Z"/><path d="M15.71,58.61Q18.49,39,21.25,19.41h27c-.76,6.28-1.13,9.41-1.89,15.68h-3.9c-.2,1.57-.29,2.36-.49,3.92h3.92l-2.35,19.6H31.63c.81-6.27,1.22-9.4,2-15.68H29.72c-.83,6.28-1.24,9.41-2.07,15.68Zm19-23.52c.4-3.13.61-4.7,1-7.84H31.8c-.42,3.14-.62,4.71-1,7.84Z"/><path d="M62.86,42.93c-.33,3.14-.5,4.71-.84,7.84H77.85l-.75,7.84H49.25Q51.52,39,53.79,19.41h27c-.29,3.14-.44,4.71-.74,7.84H64.54c-.34,3.14-.5,4.71-.84,7.84H75.43c-.31,3.14-.46,4.71-.77,7.84Z"/><path d="M99.32,50.77c.49-6.27.74-9.4,1.23-15.68h11.73c-.66,9.41-1,14.12-1.64,23.52H82.79Q84.56,39,86.34,19.41h27l-.55,7.84H97.28c-.77,9.41-1.15,14.12-1.92,23.52Z"/><path d="M116.32,58.61q1.28-19.59,2.56-39.2h11.59q-1.11,19.61-2.21,39.2Z"/><path d="M134.76,42.93c.49-9.4.73-14.11,1.22-23.52h27c-.1,3.14-.15,4.71-.24,7.84H147.23c-.14,3.14-.2,4.71-.34,7.84h15.63c-.29,9.41-.44,14.12-.73,23.52H133.94c.16-3.13.25-4.7.41-7.84h15.82c.13-3.13.19-4.7.31-7.84Z"/><path d="M187.74,27.25q-.18,15.69-.37,31.36H175.43l.66-31.36h-7.77c.08-3.13.12-4.7.21-7.84h27l-.05,7.84Z"/><path d="M212.83,42.93c0,3.14,0,4.71.06,7.84h15.82l.15,7.84H201l.06-39.2h27l.15,7.84H212.71c0,3.14,0,4.71.06,7.84H224.5c.05,3.14.07,4.71.13,7.84Z"/><path d="M234.55,58.61q-.47-19.59-.94-39.2h27c.28,6.28.42,9.41.71,15.68h-3.91c.06,1.57.1,2.36.16,3.92h3.92c.35,7.84.53,11.76.88,19.6H250.46c-.22-6.27-.33-9.4-.56-15.68H246c.2,6.28.31,9.41.51,15.68Zm15.07-23.52c-.11-3.13-.17-4.7-.28-7.84h-3.89c.11,3.14.16,4.71.26,7.84Z"/><path d="M290.34,42.93l1.05,15.68H279.45q-1.12-19.59-2.26-39.2h11.58c.21,3.14.32,4.71.53,7.84h3.88l.55,7.84h3.91c-.46-6.27-.69-9.4-1.14-15.68h11.58q1.6,19.61,3.2,39.2H299.34c-.22-3.13-.34-4.7-.56-7.84h-4l-.55-7.84Z"/><path d="M317,58.61l-3.36-39.2h27l4.2,39.2Zm15.15-7.84-2.3-23.52h-3.89c.9,9.41,1.34,14.12,2.24,23.52Z"/><path d="M357.72,19.41c.94,7.84,1.42,11.76,2.36,19.6H364c-.39-3.13-.58-4.7-1-7.84h7.8c.4,3.14.61,4.71,1,7.84h3.92c-1-7.84-1.56-11.76-2.59-19.6h11.58Q387,35.1,389.18,50.77h-3.95c.43,3.14.65,4.71,1.08,7.84H374.37c-.61-4.7-.91-7-1.52-11.76H365l1.45,11.76H354.48l-.9-7.84h-3.95q-1.74-15.68-3.49-31.36Z"/></g></g></svg>